<svg width="16" height="20" viewBox="0 0 16 20" fill="none" xmlns="http://www.w3.org/2000/svg">
<path d="M2.74092 17.968C2.74092 17.968 2.78118 18 2.80803 18C2.83487 18 2.8483 18 2.87514 18C2.87514 18 2.90199 18 2.91541 18C2.94226 18 2.9691 17.984 3.00937 17.984C3.10333 17.984 3.19729 17.952 3.29125 17.92C3.37179 17.888 3.4389 17.872 3.50602 17.824C3.50602 17.824 3.54628 17.776 3.57313 17.76C3.7342 17.648 3.86843 17.504 3.96239 17.312C3.97581 17.28 4.00266 17.264 4.01608 17.232C4.01608 17.232 4.01608 17.2 4.02951 17.184C4.06977 17.104 4.09662 17.008 4.12347 16.912C4.16373 16.784 4.17716 16.672 4.19058 16.544C4.19058 16.512 4.204 16.48 4.204 16.448V11.92L11.5194 17.728C11.7208 17.888 11.9624 17.984 12.204 18C12.4456 18.016 12.6872 17.952 12.902 17.808C13.1168 17.664 13.2913 17.472 13.4255 17.216C13.5463 16.96 13.6134 16.688 13.6134 16.4V3.59996C13.6134 3.31196 13.5463 3.02396 13.4255 2.78396C13.3047 2.52796 13.1168 2.33596 12.902 2.19196C12.6872 2.04796 12.4456 1.98396 12.204 1.99996C11.9624 1.99996 11.7208 2.11196 11.5194 2.27196L4.204 8.07996V3.55196C4.204 3.55196 4.19058 3.48796 4.19058 3.45596C4.19058 3.32796 4.16373 3.19996 4.12347 3.08796C4.09662 2.99196 4.06977 2.91196 4.02951 2.81596C4.02951 2.81596 4.02951 2.78396 4.01608 2.76796C4.00266 2.73596 3.97581 2.70396 3.96239 2.68796C3.85501 2.51196 3.72078 2.35196 3.57313 2.23996C3.54628 2.22396 3.53286 2.19196 3.50602 2.17596C3.4389 2.12796 3.37179 2.09596 3.29125 2.07996C3.19729 2.04796 3.10333 2.01596 3.00937 2.01596C2.98253 2.01596 2.95568 1.99996 2.91541 1.99996C2.91541 1.99996 2.88857 1.99996 2.87514 1.99996C2.8483 1.99996 2.82145 1.99996 2.80803 1.99996C2.76776 1.99996 2.74092 2.03196 2.70065 2.04796C2.0832 2.17596 1.59998 2.78396 1.59998 3.55196V16.448C1.59998 17.232 2.09662 17.856 2.74092 17.968Z" fill="#D4D4D8"/>
</svg>
