<svg width="35" height="35" viewBox="0 0 35 35" fill="none" xmlns="http://www.w3.org/2000/svg">
<path d="M19.2326 17.5L18.879 17.8535L13.1163 23.6162C13.1163 23.6163 13.1163 23.6163 13.1163 23.6163C12.882 23.8507 12.7504 24.1686 12.7504 24.5C12.7504 24.8314 12.882 25.1493 13.1163 25.3837C13.3507 25.618 13.6686 25.7496 14 25.7496C14.3314 25.7496 14.6493 25.618 14.8837 25.3837L19.2326 17.5ZM19.2326 17.5L18.879 17.1464L13.1196 11.387C12.8937 11.1516 12.7687 10.837 12.7715 10.5106C12.7744 10.1829 12.9059 9.86936 13.1376 9.6376C13.3694 9.40584 13.6829 9.27438 14.0106 9.27153C14.3371 9.2687 14.6516 9.39366 14.887 9.61962L21.8836 16.6162C21.8837 16.6162 21.8837 16.6163 21.8837 16.6163C22.118 16.8507 22.2496 17.1686 22.2496 17.5C22.2496 17.8314 22.118 18.1493 21.8837 18.3837C21.8837 18.3837 21.8837 18.3837 21.8836 18.3837L14.8837 25.3836L19.2326 17.5Z" fill="#27272A" stroke="#27272A"/>
</svg>
