<svg width="35" height="35" viewBox="0 0 35 35" fill="none" xmlns="http://www.w3.org/2000/svg">
<path d="M22.2372 9.26286C22.5653 9.59104 22.7496 10.0361 22.7496 10.5001C22.7496 10.9642 22.5653 11.4092 22.2372 11.7374L16.4745 17.5001L22.2372 23.2629C22.556 23.5929 22.7324 24.035 22.7284 24.4938C22.7244 24.9527 22.5404 25.3916 22.2159 25.716C21.8915 26.0405 21.4525 26.2246 20.9937 26.2285C20.5348 26.2325 20.0928 26.0561 19.7627 25.7374L12.7627 18.7374C12.4347 18.4092 12.2504 17.9642 12.2504 17.5001C12.2504 17.0361 12.4347 16.591 12.7627 16.2629L19.7627 9.26286C20.0909 8.93479 20.536 8.75049 21 8.75049C21.464 8.75049 21.9091 8.93479 22.2372 9.26286Z" fill="#27272A"/>
<path d="M22.2372 9.26286C22.5653 9.59104 22.7496 10.0361 22.7496 10.5001C22.7496 10.9642 22.5653 11.4092 22.2372 11.7374L16.4745 17.5001L22.2372 23.2629C22.556 23.5929 22.7324 24.035 22.7284 24.4938C22.7244 24.9527 22.5404 25.3916 22.2159 25.716C21.8915 26.0405 21.4525 26.2246 20.9937 26.2285C20.5348 26.2325 20.0928 26.0561 19.7627 25.7374L12.7627 18.7374C12.4347 18.4092 12.2504 17.9642 12.2504 17.5001C12.2504 17.0361 12.4347 16.591 12.7627 16.2629L19.7627 9.26286C20.0909 8.93479 20.536 8.75049 21 8.75049C21.464 8.75049 21.9091 8.93479 22.2372 9.26286Z" stroke="#27272A"/>
</svg>
