<svg width="20" height="20" viewBox="0 0 20 20" fill="none" xmlns="http://www.w3.org/2000/svg">
<path d="M15.5738 2.03204C15.5738 2.03204 15.5235 2.00004 15.4899 2.00004C15.4564 2.00004 15.4396 2.00004 15.406 2.00004C15.406 2.00004 15.3725 2.00004 15.3557 2.00004C15.3221 2.00004 15.2886 2.01604 15.2383 2.01604C15.1208 2.01604 15.0034 2.04804 14.8859 2.08004C14.7852 2.11204 14.7013 2.12804 14.6174 2.17604C14.6174 2.17604 14.5671 2.22404 14.5336 2.24004C14.3322 2.35204 14.1644 2.49604 14.047 2.68804C14.0302 2.72004 13.9966 2.73604 13.9799 2.76804C13.9799 2.76804 13.9799 2.80004 13.9631 2.81604C13.9128 2.89604 13.8792 2.99204 13.8456 3.08804C13.7953 3.21604 13.7785 3.32804 13.7617 3.45604C13.7617 3.48804 13.745 3.52004 13.745 3.55204L13.745 8.08004L4.60067 2.27204C4.34899 2.11204 4.04698 2.01604 3.74496 2.00004C3.44295 1.98404 3.14094 2.04804 2.87248 2.19204C2.60403 2.33604 2.3859 2.52804 2.21812 2.78404C2.06711 3.04004 1.98322 3.31204 1.98322 3.60004L1.98322 16.4C1.98322 16.688 2.06711 16.976 2.21812 17.216C2.36913 17.472 2.60403 17.664 2.87248 17.808C3.14094 17.952 3.44295 18.016 3.74497 18C4.04698 18 4.34899 17.888 4.60067 17.728L13.745 11.92L13.745 16.448C13.745 16.448 13.7617 16.512 13.7617 16.544C13.7617 16.672 13.7953 16.8 13.8456 16.912C13.8792 17.008 13.9128 17.088 13.9631 17.184C13.9631 17.184 13.9631 17.216 13.9799 17.232C13.9966 17.264 14.0302 17.296 14.047 17.312C14.1812 17.488 14.349 17.648 14.5336 17.76C14.5671 17.776 14.5839 17.808 14.6174 17.824C14.7013 17.872 14.7852 17.904 14.8859 17.92C15.0034 17.952 15.1208 17.984 15.2383 17.984C15.2718 17.984 15.3054 18 15.3557 18C15.3557 18 15.3893 18 15.406 18C15.4396 18 15.4732 18 15.4899 18C15.5403 18 15.5738 17.968 15.6242 17.952C16.396 17.824 17 17.216 17 16.448L17 3.55204C17 2.76804 16.3792 2.14404 15.5738 2.03204Z" fill="#D4D4D8"/>
</svg>
