<svg width="20" height="20" viewBox="0 0 20 20" fill="none" xmlns="http://www.w3.org/2000/svg">
<path d="M10.0149 14.8422C8.12012 14.8422 6.22539 14.8422 4.33065 14.8422C3.38328 14.9475 2.7517 13.7896 3.59381 13.158C4.85697 11.8949 5.17275 10.1054 5.17275 8.42118C5.27802 6.21066 6.7517 4.52644 8.85697 4.00013C9.06749 4.00013 9.06749 3.89487 9.06749 3.68434C9.06749 2.84223 9.38328 2.31592 10.0149 2.31592C10.6464 2.31592 10.9622 2.73697 10.9622 3.68434C10.9622 3.89487 11.0675 3.89487 11.1728 4.00013C13.1728 4.52644 14.7517 6.31592 14.7517 8.42118C14.857 10.1054 14.9622 12.0001 16.3307 13.158C17.1728 13.8949 16.5412 14.9475 15.5938 14.8422C13.8043 14.8422 11.9096 14.8422 10.0149 14.8422Z" fill="#9DA3AE"/>
<path d="M10.5789 17.6843C9.73684 17.6843 8.89473 16.9474 8.6842 16.1053C8.6842 15.8948 8.6842 15.7896 8.89473 15.7896C9.94736 15.7896 11.1053 15.7896 12.1579 15.7896C12.3684 15.7896 12.4737 15.8948 12.3684 16.1053C12.2632 16.9474 11.421 17.6843 10.5789 17.6843Z" fill="#9DA3AE"/>
</svg>
