<svg width="20" height="20" viewBox="0 0 20 20" fill="none" xmlns="http://www.w3.org/2000/svg">
<path fill-rule="evenodd" clip-rule="evenodd" d="M5.47678 2.74355C6.03205 2.5543 6.61336 2.50012 7.1274 2.50012C8.34801 2.50012 9.26829 3.02123 10.0004 3.54426C10.7382 3.01722 11.6524 2.50011 12.8873 2.50012C13.4364 2.50012 13.998 2.57686 14.5423 2.75792C17.8668 3.83482 18.9377 7.41422 18.0095 10.3544L18.0056 10.3668L18.0013 10.3791C17.4876 11.8454 16.6476 13.1846 15.5456 14.2802L15.5409 14.2849L15.536 14.2895C13.9971 15.7712 12.2689 17.1096 10.4289 18.2144L9.99455 18.4753L9.56307 18.2096C7.72716 17.0794 6.03156 15.777 4.47389 14.2832L4.46747 14.2771L4.46117 14.2708C3.36859 13.1773 2.52866 11.8479 2.00735 10.383L2.00299 10.3707L1.99901 10.3583C1.05289 7.41169 2.12916 3.83658 5.47678 2.74355ZM7.1274 4.16679C6.7163 4.16679 6.3325 4.21208 6.01091 4.32232L6.00471 4.32445L5.99849 4.32647C3.75836 5.05529 2.84081 7.50973 3.58197 9.83658C4.01998 11.0616 4.72267 12.1726 5.63399 13.0865C6.97941 14.3759 8.43491 15.5154 10.0046 16.5192C11.5692 15.5365 13.0458 14.3728 14.3752 13.0936C15.2913 12.1815 15.993 11.0648 16.424 9.84049C17.1549 7.50655 16.2312 5.05538 14.026 4.34263L14.0186 4.34022L14.0186 4.34019C13.6656 4.22241 13.2835 4.16679 12.8873 4.16679C11.9783 4.16678 11.3499 4.60427 10.5041 5.24689L9.99912 5.63049L9.49479 5.2461C8.66235 4.61163 8.02018 4.16679 7.1274 4.16679Z" fill="#9CA3AF"/>
</svg>
