<svg width="20" height="20" viewBox="0 0 20 20" fill="none" xmlns="http://www.w3.org/2000/svg">
<path d="M2.94963 4.34375H9.59622C9.81847 4.34375 10.0459 4.5428 10.0459 4.84829C10.0459 5.15377 9.81847 5.35282 9.59622 5.35282H2.94963C2.72738 5.35282 2.49997 5.15377 2.49997 4.84829C2.49997 4.5428 2.72738 4.34375 2.94963 4.34375Z" stroke="#D4D4D8"/>
<path d="M9.59646 7.95483H5.08635C4.56187 7.95483 4.13669 8.40458 4.13669 8.95937C4.13669 9.51416 4.56187 9.96391 5.08635 9.96391H9.59646C10.1209 9.96391 10.5461 9.51416 10.5461 8.95937C10.5461 8.40458 10.1209 7.95483 9.59646 7.95483Z" fill="#D4D4D8"/>
<path d="M5.7826 11.9547H2.94963C2.42515 11.9547 1.99997 12.4045 1.99997 12.9592C1.99997 13.514 2.42515 13.9638 2.94963 13.9638H5.7826C6.30709 13.9638 6.73227 13.514 6.73227 12.9592C6.73227 12.4045 6.30709 11.9547 5.7826 11.9547Z" fill="#D4D4D8"/>
<path d="M17.3026 2.0088L13.2305 2.72972C12.7573 2.81673 12.3973 3.25063 12.3973 3.77607V13.1864C11.9764 13.0485 11.5106 12.9717 11.0203 12.9717C9.13912 12.9717 7.61368 14.0971 7.61368 15.4859C7.61368 16.8746 9.13912 18 11.0203 18C12.9015 18 14.4269 16.8746 14.4269 15.4859C14.4269 15.3887 14.4184 15.2926 14.4045 15.1989V5.49587L17.5024 4.93767C17.7897 4.88569 18.0002 4.62241 18.0002 4.31393V2.63254C18.0002 2.24158 17.6679 1.9444 17.3037 2.0088H17.3026Z" fill="#D4D4D8"/>
</svg>
