<svg width="20" height="20" viewBox="0 0 20 20" fill="none" xmlns="http://www.w3.org/2000/svg">
<path d="M4.34375 4.34375L3.28125 3.28125C2.80937 2.80937 2 3.14375 2 3.80938V7.25C2 7.66563 2.33437 8 2.75 8H6.19063C6.85938 8 7.19375 7.19063 6.72188 6.71875L5.75938 5.75625C6.84375 4.67188 8.34375 4 10 4C13.3125 4 16 6.6875 16 10C16 13.3125 13.3125 16 10 16C8.725 16 7.54375 15.6031 6.57188 14.925C6.11875 14.6094 5.49687 14.7188 5.17812 15.1719C4.85938 15.625 4.97187 16.2469 5.425 16.5656C6.725 17.4688 8.30312 18 10 18C14.4187 18 18 14.4187 18 10C18 5.58125 14.4187 2 10 2C7.79063 2 5.79063 2.89688 4.34375 4.34375ZM10 6C9.58437 6 9.25 6.33437 9.25 6.75V10C9.25 10.2 9.32812 10.3906 9.46875 10.5312L11.7188 12.7812C12.0125 13.075 12.4875 13.075 12.7781 12.7812C13.0687 12.4875 13.0719 12.0125 12.7781 11.7219L10.7469 9.69063V6.75C10.7469 6.33437 10.4125 6 9.99687 6H10Z" fill="#9CA3AF"/>
</svg>
