<svg width="20" height="20" viewBox="0 0 20 20" fill="none" xmlns="http://www.w3.org/2000/svg">
<g opacity="0.5">
<path d="M14.3278 3.4053C14.6793 3.25886 15.0806 3.34086 15.35 3.60738L17.2247 5.48183C17.4004 5.65756 17.5 5.89479 17.5 6.14374C17.5 6.39269 17.4004 6.62992 17.2247 6.80565L15.35 8.68009C15.0806 8.94954 14.6793 9.02862 14.3278 8.88218C13.9763 8.73574 13.7478 8.396 13.7478 8.01525V7.08389H12.8105C12.5146 7.08389 12.2364 7.22154 12.0606 7.45878L10.8187 9.11356L9.64704 7.5525L10.5609 6.33411C11.0911 5.62534 11.9259 5.20945 12.8105 5.20945H13.7478V4.27223C13.7478 3.89441 13.9763 3.55174 14.3278 3.4053ZM7.30375 10.6775L8.4754 12.2386L7.56151 13.457C7.03134 14.1658 6.19654 14.5817 5.31195 14.5817H3.43732C2.91886 14.5817 2.5 14.1628 2.5 13.6444C2.5 13.126 2.91886 12.7072 3.43732 12.7072H5.31195C5.60779 12.7072 5.88606 12.5696 6.0618 12.3323L7.30375 10.6775ZM15.3471 16.1837C15.0776 16.4532 14.6763 16.5322 14.3248 16.3858C13.9733 16.2394 13.7449 15.8996 13.7449 15.5189V14.5817H12.8105C11.9259 14.5817 11.0911 14.1658 10.5609 13.457L6.0618 7.45878C5.88606 7.22154 5.60779 7.08389 5.31195 7.08389H3.43732C2.91886 7.08389 2.5 6.66507 2.5 6.14667C2.5 5.62827 2.91886 5.20945 3.43732 5.20945H5.31195C6.19654 5.20945 7.03134 5.62534 7.56151 6.33411L12.0606 12.3323C12.2364 12.5696 12.5146 12.7072 12.8105 12.7072H13.7478V11.77C13.7478 11.3922 13.9763 11.0495 14.3278 10.9031C14.6793 10.7566 15.0806 10.8386 15.35 11.1052L17.2247 12.9796C17.4004 13.1553 17.5 13.3926 17.5 13.6415C17.5 13.8905 17.4004 14.1277 17.2247 14.3034L15.35 16.1779L15.3471 16.1837Z" fill="#D4D4D8"/>
</g>
</svg>
