<svg width="20" height="20" viewBox="0 0 20 20" fill="none" xmlns="http://www.w3.org/2000/svg">
<path d="M12.9467 7.0533C13.3337 7.44022 13.6407 7.8996 13.8502 8.4052C14.0596 8.91079 14.1674 9.4527 14.1674 9.99997C14.1674 10.5472 14.0596 11.0891 13.8502 11.5947C13.6407 12.1003 13.3337 12.5597 12.9467 12.9466M15.3033 4.69663C15.9998 5.39307 16.5522 6.21987 16.9292 7.12982C17.3061 8.03977 17.5001 9.01504 17.5001 9.99997C17.5001 10.9849 17.3061 11.9602 16.9292 12.8701C16.5522 13.7801 15.9998 14.6069 15.3033 15.3033M4.655 12.5H3.33333C3.11232 12.5 2.90036 12.4122 2.74408 12.2559C2.5878 12.0996 2.5 11.8876 2.5 11.6666V8.3333C2.5 8.11228 2.5878 7.90032 2.74408 7.74404C2.90036 7.58776 3.11232 7.49997 3.33333 7.49997H4.655L8.5775 3.57747C9.1025 3.05247 10 3.42413 10 4.16663V15.8333C10 16.5758 9.1025 16.9475 8.5775 16.4225L4.655 12.5Z" stroke="#D4D4D8" stroke-width="2" stroke-linecap="round" stroke-linejoin="round"/>
</svg>
